<mxfile host="app.diagrams.net" modified="2024-02-24T15:00:49.958Z" agent="Mozilla/5.0 (Windows NT 10.0; Win64; x64) AppleWebKit/537.36 (KHTML, like Gecko) Chrome/121.0.0.0 Safari/537.36 OPR/107.0.0.0" etag="bAPbnWoBrM5CtPOaPena" version="23.1.6" type="github">
  <diagram name="Página-1" id="DudQN2zTfORtchTnh3EI">
    <mxGraphModel dx="724" dy="395" grid="1" gridSize="10" guides="1" tooltips="1" connect="1" arrows="1" fold="1" page="1" pageScale="1" pageWidth="827" pageHeight="1169" background="none" math="0" shadow="0">
      <root>
        <mxCell id="0" />
        <mxCell id="1" parent="0" />
        <mxCell id="cXfSbX7kKcUHHstsMCqb-44" value="Livro" style="whiteSpace=wrap;html=1;align=center;" vertex="1" parent="1">
          <mxGeometry x="325" y="550" width="110" height="60" as="geometry" />
        </mxCell>
        <mxCell id="cXfSbX7kKcUHHstsMCqb-27" style="edgeStyle=orthogonalEdgeStyle;rounded=0;orthogonalLoop=1;jettySize=auto;html=1;exitX=0;exitY=0.5;exitDx=0;exitDy=0;entryX=1;entryY=1;entryDx=0;entryDy=0;" edge="1" parent="1" source="cXfSbX7kKcUHHstsMCqb-16" target="cXfSbX7kKcUHHstsMCqb-21">
          <mxGeometry relative="1" as="geometry" />
        </mxCell>
        <mxCell id="cXfSbX7kKcUHHstsMCqb-28" style="edgeStyle=orthogonalEdgeStyle;rounded=0;orthogonalLoop=1;jettySize=auto;html=1;exitX=0;exitY=1;exitDx=0;exitDy=0;" edge="1" parent="1" source="cXfSbX7kKcUHHstsMCqb-16" target="cXfSbX7kKcUHHstsMCqb-20">
          <mxGeometry relative="1" as="geometry" />
        </mxCell>
        <mxCell id="cXfSbX7kKcUHHstsMCqb-16" value="Livro" style="whiteSpace=wrap;html=1;align=center;" vertex="1" parent="1">
          <mxGeometry x="130" y="560" width="100" height="40" as="geometry" />
        </mxCell>
        <mxCell id="cXfSbX7kKcUHHstsMCqb-17" value="ISBN" style="ellipse;whiteSpace=wrap;html=1;align=center;fontStyle=4;fillColor=#d5e8d4;strokeColor=#82b366;" vertex="1" parent="1">
          <mxGeometry x="50" y="470" width="70" height="30" as="geometry" />
        </mxCell>
        <mxCell id="cXfSbX7kKcUHHstsMCqb-20" value="Título" style="ellipse;whiteSpace=wrap;html=1;align=center;" vertex="1" parent="1">
          <mxGeometry x="20" y="610" width="70" height="30" as="geometry" />
        </mxCell>
        <mxCell id="cXfSbX7kKcUHHstsMCqb-21" value="Autor" style="ellipse;whiteSpace=wrap;html=1;align=center;" vertex="1" parent="1">
          <mxGeometry x="10" y="530" width="70" height="30" as="geometry" />
        </mxCell>
        <mxCell id="cXfSbX7kKcUHHstsMCqb-22" value="Categoria" style="ellipse;whiteSpace=wrap;html=1;align=center;" vertex="1" parent="1">
          <mxGeometry x="160" y="470" width="70" height="30" as="geometry" />
        </mxCell>
        <mxCell id="cXfSbX7kKcUHHstsMCqb-25" value="" style="edgeStyle=elbowEdgeStyle;elbow=vertical;endArrow=classic;html=1;curved=0;rounded=0;endSize=8;startSize=8;entryX=0.269;entryY=1.067;entryDx=0;entryDy=0;entryPerimeter=0;exitX=0.32;exitY=-0.01;exitDx=0;exitDy=0;exitPerimeter=0;" edge="1" parent="1" source="cXfSbX7kKcUHHstsMCqb-16" target="cXfSbX7kKcUHHstsMCqb-22">
          <mxGeometry width="50" height="50" relative="1" as="geometry">
            <mxPoint x="160" y="550" as="sourcePoint" />
            <mxPoint x="230" y="510" as="targetPoint" />
            <Array as="points">
              <mxPoint x="200" y="540" />
            </Array>
          </mxGeometry>
        </mxCell>
        <mxCell id="cXfSbX7kKcUHHstsMCqb-26" value="" style="edgeStyle=elbowEdgeStyle;elbow=vertical;endArrow=classic;html=1;curved=0;rounded=0;endSize=8;startSize=8;" edge="1" parent="1" target="cXfSbX7kKcUHHstsMCqb-17">
          <mxGeometry width="50" height="50" relative="1" as="geometry">
            <mxPoint x="140" y="560" as="sourcePoint" />
            <mxPoint x="190" y="510" as="targetPoint" />
          </mxGeometry>
        </mxCell>
        <mxCell id="cXfSbX7kKcUHHstsMCqb-29" value="Empréstimo" style="rhombus;whiteSpace=wrap;html=1;" vertex="1" parent="1">
          <mxGeometry x="320" y="555" width="120" height="50" as="geometry" />
        </mxCell>
        <mxCell id="cXfSbX7kKcUHHstsMCqb-31" value="" style="line;strokeWidth=2;html=1;" vertex="1" parent="1">
          <mxGeometry x="230" y="575" width="90" height="10" as="geometry" />
        </mxCell>
        <mxCell id="cXfSbX7kKcUHHstsMCqb-33" value="" style="line;strokeWidth=2;html=1;" vertex="1" parent="1">
          <mxGeometry x="440" y="575" width="90" height="10" as="geometry" />
        </mxCell>
        <mxCell id="cXfSbX7kKcUHHstsMCqb-35" value="Usuário" style="whiteSpace=wrap;html=1;align=center;" vertex="1" parent="1">
          <mxGeometry x="530" y="560" width="100" height="40" as="geometry" />
        </mxCell>
        <mxCell id="cXfSbX7kKcUHHstsMCqb-37" value="E-MAIL" style="ellipse;whiteSpace=wrap;html=1;align=center;fontStyle=4;fillColor=#d5e8d4;strokeColor=#82b366;" vertex="1" parent="1">
          <mxGeometry x="580" y="470" width="70" height="30" as="geometry" />
        </mxCell>
        <mxCell id="cXfSbX7kKcUHHstsMCqb-38" value="Nome" style="ellipse;whiteSpace=wrap;html=1;align=center;" vertex="1" parent="1">
          <mxGeometry x="670" y="500" width="70" height="30" as="geometry" />
        </mxCell>
        <mxCell id="cXfSbX7kKcUHHstsMCqb-39" value="Senha" style="ellipse;whiteSpace=wrap;html=1;align=center;fontStyle=4;fillColor=#d5e8d4;strokeColor=#82b366;" vertex="1" parent="1">
          <mxGeometry x="670" y="565" width="70" height="30" as="geometry" />
        </mxCell>
        <mxCell id="cXfSbX7kKcUHHstsMCqb-41" value="" style="edgeStyle=elbowEdgeStyle;elbow=vertical;endArrow=classic;html=1;curved=0;rounded=0;endSize=8;startSize=8;entryX=0.5;entryY=1;entryDx=0;entryDy=0;" edge="1" parent="1" target="cXfSbX7kKcUHHstsMCqb-37">
          <mxGeometry width="50" height="50" relative="1" as="geometry">
            <mxPoint x="560" y="560" as="sourcePoint" />
            <mxPoint x="610" y="510" as="targetPoint" />
          </mxGeometry>
        </mxCell>
        <mxCell id="cXfSbX7kKcUHHstsMCqb-42" value="" style="edgeStyle=elbowEdgeStyle;elbow=vertical;endArrow=classic;html=1;curved=0;rounded=0;endSize=8;startSize=8;entryX=0.011;entryY=0.787;entryDx=0;entryDy=0;entryPerimeter=0;" edge="1" parent="1" target="cXfSbX7kKcUHHstsMCqb-38">
          <mxGeometry width="50" height="50" relative="1" as="geometry">
            <mxPoint x="610" y="560" as="sourcePoint" />
            <mxPoint x="660" y="510" as="targetPoint" />
          </mxGeometry>
        </mxCell>
        <mxCell id="cXfSbX7kKcUHHstsMCqb-43" value="" style="edgeStyle=segmentEdgeStyle;endArrow=classic;html=1;curved=0;rounded=0;endSize=8;startSize=8;exitX=1;exitY=1;exitDx=0;exitDy=0;entryX=0;entryY=0.5;entryDx=0;entryDy=0;" edge="1" parent="1" target="cXfSbX7kKcUHHstsMCqb-39">
          <mxGeometry width="50" height="50" relative="1" as="geometry">
            <mxPoint x="630" y="580" as="sourcePoint" />
            <mxPoint x="700" y="575" as="targetPoint" />
          </mxGeometry>
        </mxCell>
        <mxCell id="cXfSbX7kKcUHHstsMCqb-45" value="" style="html=1;whiteSpace=wrap;aspect=fixed;shape=isoRectangle;" vertex="1" parent="1">
          <mxGeometry x="259.16999999999996" y="570.5" width="31.66" height="19" as="geometry" />
        </mxCell>
        <mxCell id="cXfSbX7kKcUHHstsMCqb-46" value="" style="html=1;whiteSpace=wrap;aspect=fixed;shape=isoRectangle;" vertex="1" parent="1">
          <mxGeometry x="469.16999999999996" y="570.5" width="31.66" height="19" as="geometry" />
        </mxCell>
        <mxCell id="cXfSbX7kKcUHHstsMCqb-47" value="1" style="text;html=1;align=center;verticalAlign=middle;resizable=0;points=[];autosize=1;strokeColor=none;fillColor=none;" vertex="1" parent="1">
          <mxGeometry x="225" y="558" width="30" height="30" as="geometry" />
        </mxCell>
        <mxCell id="cXfSbX7kKcUHHstsMCqb-48" value="n" style="text;html=1;align=center;verticalAlign=middle;resizable=0;points=[];autosize=1;strokeColor=none;fillColor=none;" vertex="1" parent="1">
          <mxGeometry x="295" y="558" width="30" height="30" as="geometry" />
        </mxCell>
        <mxCell id="cXfSbX7kKcUHHstsMCqb-49" value="n" style="text;html=1;align=center;verticalAlign=middle;resizable=0;points=[];autosize=1;strokeColor=none;fillColor=none;" vertex="1" parent="1">
          <mxGeometry x="435" y="558" width="30" height="30" as="geometry" />
        </mxCell>
        <mxCell id="cXfSbX7kKcUHHstsMCqb-50" value="1" style="text;html=1;align=center;verticalAlign=middle;resizable=0;points=[];autosize=1;strokeColor=none;fillColor=none;" vertex="1" parent="1">
          <mxGeometry x="500" y="558" width="30" height="30" as="geometry" />
        </mxCell>
        <mxCell id="cXfSbX7kKcUHHstsMCqb-51" value="(PK)" style="text;html=1;align=center;verticalAlign=middle;resizable=0;points=[];autosize=1;strokeColor=none;fillColor=none;" vertex="1" parent="1">
          <mxGeometry x="50" y="440" width="50" height="30" as="geometry" />
        </mxCell>
        <mxCell id="cXfSbX7kKcUHHstsMCqb-52" value="(PK)" style="text;html=1;align=center;verticalAlign=middle;resizable=0;points=[];autosize=1;strokeColor=none;fillColor=none;" vertex="1" parent="1">
          <mxGeometry x="595" y="438" width="50" height="30" as="geometry" />
        </mxCell>
        <mxCell id="cXfSbX7kKcUHHstsMCqb-54" value="(PK)" style="text;html=1;align=center;verticalAlign=middle;resizable=0;points=[];autosize=1;strokeColor=none;fillColor=none;" vertex="1" parent="1">
          <mxGeometry x="700" y="595" width="50" height="30" as="geometry" />
        </mxCell>
        <mxCell id="cXfSbX7kKcUHHstsMCqb-57" value="Data de retirada" style="ellipse;whiteSpace=wrap;html=1;align=center;" vertex="1" parent="1">
          <mxGeometry x="344" y="670" width="70" height="30" as="geometry" />
        </mxCell>
        <mxCell id="cXfSbX7kKcUHHstsMCqb-58" value="Data de entrega" style="ellipse;whiteSpace=wrap;html=1;align=center;" vertex="1" parent="1">
          <mxGeometry x="435" y="630" width="70" height="30" as="geometry" />
        </mxCell>
        <mxCell id="cXfSbX7kKcUHHstsMCqb-59" value="ISBN" style="ellipse;whiteSpace=wrap;html=1;align=center;fontStyle=4;fillColor=#fad7ac;strokeColor=#b46504;" vertex="1" parent="1">
          <mxGeometry x="255" y="630" width="70" height="30" as="geometry" />
        </mxCell>
        <mxCell id="cXfSbX7kKcUHHstsMCqb-60" value="E-MAIL" style="ellipse;whiteSpace=wrap;html=1;align=center;fontStyle=4;fillColor=#fad7ac;strokeColor=#b46504;" vertex="1" parent="1">
          <mxGeometry x="295" y="470" width="70" height="30" as="geometry" />
        </mxCell>
        <mxCell id="cXfSbX7kKcUHHstsMCqb-61" value="Senha" style="ellipse;whiteSpace=wrap;html=1;align=center;fontStyle=4;fillColor=#fad7ac;strokeColor=#b46504;" vertex="1" parent="1">
          <mxGeometry x="395" y="470" width="70" height="30" as="geometry" />
        </mxCell>
        <mxCell id="cXfSbX7kKcUHHstsMCqb-62" value="" style="edgeStyle=elbowEdgeStyle;elbow=vertical;endArrow=classic;html=1;curved=0;rounded=0;endSize=8;startSize=8;entryX=0.5;entryY=1;entryDx=0;entryDy=0;" edge="1" parent="1" target="cXfSbX7kKcUHHstsMCqb-61">
          <mxGeometry width="50" height="50" relative="1" as="geometry">
            <mxPoint x="390" y="550" as="sourcePoint" />
            <mxPoint x="440" y="500" as="targetPoint" />
          </mxGeometry>
        </mxCell>
        <mxCell id="cXfSbX7kKcUHHstsMCqb-63" value="" style="edgeStyle=elbowEdgeStyle;elbow=vertical;endArrow=classic;html=1;curved=0;rounded=0;endSize=8;startSize=8;exitX=0.409;exitY=1;exitDx=0;exitDy=0;exitPerimeter=0;entryX=0.38;entryY=-0.139;entryDx=0;entryDy=0;entryPerimeter=0;" edge="1" parent="1" source="cXfSbX7kKcUHHstsMCqb-44" target="cXfSbX7kKcUHHstsMCqb-57">
          <mxGeometry width="50" height="50" relative="1" as="geometry">
            <mxPoint x="364" y="660" as="sourcePoint" />
            <mxPoint x="414" y="610" as="targetPoint" />
          </mxGeometry>
        </mxCell>
        <mxCell id="cXfSbX7kKcUHHstsMCqb-64" value="" style="edgeStyle=elbowEdgeStyle;elbow=vertical;endArrow=classic;html=1;curved=0;rounded=0;endSize=8;startSize=8;entryX=0.5;entryY=1;entryDx=0;entryDy=0;" edge="1" parent="1" target="cXfSbX7kKcUHHstsMCqb-60">
          <mxGeometry width="50" height="50" relative="1" as="geometry">
            <mxPoint x="350" y="550" as="sourcePoint" />
            <mxPoint x="400" y="500" as="targetPoint" />
          </mxGeometry>
        </mxCell>
        <mxCell id="cXfSbX7kKcUHHstsMCqb-65" value="" style="edgeStyle=segmentEdgeStyle;endArrow=classic;html=1;curved=0;rounded=0;endSize=8;startSize=8;exitX=0.681;exitY=1.048;exitDx=0;exitDy=0;exitPerimeter=0;entryX=0.034;entryY=0.698;entryDx=0;entryDy=0;entryPerimeter=0;" edge="1" parent="1" source="cXfSbX7kKcUHHstsMCqb-44" target="cXfSbX7kKcUHHstsMCqb-58">
          <mxGeometry width="50" height="50" relative="1" as="geometry">
            <mxPoint x="390" y="640" as="sourcePoint" />
            <mxPoint x="400" y="660" as="targetPoint" />
            <Array as="points">
              <mxPoint x="400" y="651" />
            </Array>
          </mxGeometry>
        </mxCell>
        <mxCell id="cXfSbX7kKcUHHstsMCqb-66" value="" style="edgeStyle=elbowEdgeStyle;elbow=vertical;endArrow=classic;html=1;curved=0;rounded=0;endSize=8;startSize=8;exitX=0.136;exitY=1;exitDx=0;exitDy=0;exitPerimeter=0;entryX=1;entryY=0;entryDx=0;entryDy=0;" edge="1" parent="1" source="cXfSbX7kKcUHHstsMCqb-44" target="cXfSbX7kKcUHHstsMCqb-59">
          <mxGeometry width="50" height="50" relative="1" as="geometry">
            <mxPoint x="300" y="650" as="sourcePoint" />
            <mxPoint x="350" y="600" as="targetPoint" />
          </mxGeometry>
        </mxCell>
        <mxCell id="cXfSbX7kKcUHHstsMCqb-67" value="(FK)" style="text;html=1;align=center;verticalAlign=middle;resizable=0;points=[];autosize=1;strokeColor=none;fillColor=none;" vertex="1" parent="1">
          <mxGeometry x="305" y="438" width="50" height="30" as="geometry" />
        </mxCell>
        <mxCell id="cXfSbX7kKcUHHstsMCqb-68" value="(FK)" style="text;html=1;align=center;verticalAlign=middle;resizable=0;points=[];autosize=1;strokeColor=none;fillColor=none;" vertex="1" parent="1">
          <mxGeometry x="405" y="440" width="50" height="30" as="geometry" />
        </mxCell>
        <mxCell id="cXfSbX7kKcUHHstsMCqb-69" value="(FK)" style="text;html=1;align=center;verticalAlign=middle;resizable=0;points=[];autosize=1;strokeColor=none;fillColor=none;" vertex="1" parent="1">
          <mxGeometry x="259.17" y="660" width="50" height="30" as="geometry" />
        </mxCell>
      </root>
    </mxGraphModel>
  </diagram>
</mxfile>
